<?xml version="1.0" encoding="UTF-8" standalone="no"?>
<!-- Created with Inkscape (http://www.inkscape.org/) -->

<svg
   xmlns:dc="http://purl.org/dc/elements/1.1/"
   xmlns:cc="http://creativecommons.org/ns#"
   xmlns:rdf="http://www.w3.org/1999/02/22-rdf-syntax-ns#"
   xmlns:svg="http://www.w3.org/2000/svg"
   xmlns="http://www.w3.org/2000/svg"
   xmlns:sodipodi="http://sodipodi.sourceforge.net/DTD/sodipodi-0.dtd"
   xmlns:inkscape="http://www.inkscape.org/namespaces/inkscape"
   width="297mm"
   height="210mm"
   viewBox="0 0 1052.3622 744.09448"
   id="svg2"
   version="1.1"
   inkscape:version="0.91 r13725"
   sodipodi:docname="Icons_LeeSpe_2.svg"
   inkscape:export-filename="M:\School\Insidia\Insidia\Icons_LeeSpe\Icons_LeeSpe.png"
   inkscape:export-xdpi="300.02042"
   inkscape:export-ydpi="300.02042">
  <defs
     id="defs4" />
  <sodipodi:namedview
     id="base"
     pagecolor="#ffffff"
     bordercolor="#666666"
     borderopacity="1.0"
     inkscape:pageopacity="0.0"
     inkscape:pageshadow="2"
     inkscape:zoom="0.35355339"
     inkscape:cx="1207.9693"
     inkscape:cy="333.94885"
     inkscape:document-units="px"
     inkscape:current-layer="layer1"
     showgrid="false"
     inkscape:window-width="1280"
     inkscape:window-height="790"
     inkscape:window-x="-8"
     inkscape:window-y="-8"
     inkscape:window-maximized="1" />
  <metadata
     id="metadata7">
    <rdf:RDF>
      <cc:Work
         rdf:about="">
        <dc:format>image/svg+xml</dc:format>
        <dc:type
           rdf:resource="http://purl.org/dc/dcmitype/StillImage" />
        <dc:title></dc:title>
      </cc:Work>
    </rdf:RDF>
  </metadata>
  <g
     inkscape:label="Layer 1"
     inkscape:groupmode="layer"
     id="layer1"
     transform="translate(0,-308.26772)">
    <text
       xml:space="preserve"
       style="font-style:normal;font-weight:normal;font-size:22.5px;line-height:125%;font-family:sans-serif;letter-spacing:0px;word-spacing:0px;fill:#000000;fill-opacity:1;stroke:none;stroke-width:1px;stroke-linecap:butt;stroke-linejoin:miter;stroke-opacity:1"
       x="54.285713"
       y="1030.9336"
       id="text4141"
       sodipodi:linespacing="125%"><tspan
         sodipodi:role="line"
         id="tspan4143"
         x="54.285713"
         y="1030.9336"
         style="font-weight:bold;font-size:30px">Slow/Stun</tspan></text>
    <text
       xml:space="preserve"
       style="font-style:normal;font-weight:normal;font-size:22.5px;line-height:125%;font-family:sans-serif;letter-spacing:0px;word-spacing:0px;fill:#000000;fill-opacity:1;stroke:none;stroke-width:1px;stroke-linecap:butt;stroke-linejoin:miter;stroke-opacity:1"
       x="422.85715"
       y="1030.9337"
       id="text4145"
       sodipodi:linespacing="125%"><tspan
         sodipodi:role="line"
         x="422.85715"
         y="1030.9337"
         id="tspan4149"
         style="font-weight:bold;font-size:30px">Damage Boost</tspan></text>
    <text
       xml:space="preserve"
       style="font-style:normal;font-weight:normal;font-size:22.5px;line-height:125%;font-family:sans-serif;letter-spacing:0px;word-spacing:0px;fill:#000000;fill-opacity:1;stroke:none;stroke-width:1px;stroke-linecap:butt;stroke-linejoin:miter;stroke-opacity:1"
       x="805.71429"
       y="1036.6479"
       id="text4153"
       sodipodi:linespacing="125%"><tspan
         sodipodi:role="line"
         id="tspan4155"
         x="805.71429"
         y="1036.6479"
         style="font-weight:bold;font-size:30px">Armor Pierce</tspan></text>
    <path
       style="fill:#000000;fill-opacity:1;fill-rule:evenodd;stroke:#000000;stroke-width:0.73430598px;stroke-linecap:butt;stroke-linejoin:miter;stroke-opacity:1"
       d="m 1437.6727,14.850631 -22.9887,10e-4 -49.5341,37.68768 42.3631,0 -49.2329,66.405929 28.6236,-57.247179 -51.5219,4.5808 36.8917,-51.4258 -9.7754,0 -75.1746,10e-4 0,123.783619 c 0,0 27.2742,58.74373 75.1746,67.13306 47.9003,-8.39482 75.1746,-67.1388 75.1746,-67.1388 l 0,-123.782189 z"
       id="path4157-0"
       inkscape:connector-curvature="0" />
    <path
       style="fill:#000000;fill-opacity:1;fill-rule:evenodd;stroke:#000000;stroke-width:0.76849651px;stroke-linecap:butt;stroke-linejoin:miter;stroke-opacity:1"
       d="m 903.06805,749.4376 11.53907,46.08594 -11.29493,6.65039 0.8418,38.06055 -9.79687,-40.43555 6.45507,-4.98828 -16.6621,-45.01563 -53.07618,0.004 0,129.54688 c 0,0 1.35903,2.86771 3.86133,7.31054 l 29.87305,-20.22265 -1.61328,-4.98828 40.92968,-15.28907 -25.73242,16.95117 1.61524,11.64063 -31.10938,30.69727 c 12.78317,18.7749 29.5794,38.68344 60.84961,44.16015 50.13066,-8.78569 78.67578,-70.26562 78.67578,-70.26562 l 0,-25.01368 -31.16211,-10 -12.88281,7.01954 -28.42773,-7.59571 29.6582,-2.14648 10.9375,-7.37891 31.87695,1.72656 0,-86.1582 -81.88867,-0.35547 -3.4668,0 z m 3.70118,94.97656 -1.38282,0.91016 -0.19336,-0.79687 1.57618,-0.11329 z"
       id="path3360"
       inkscape:connector-curvature="0" />
    <path
       style="opacity:0.97000002;fill:#000000;fill-opacity:1;stroke:#000000;stroke-width:5;stroke-linejoin:round;stroke-miterlimit:4;stroke-dasharray:none;stroke-opacity:1"
       d="M 103.31836 38.554688 C 93.655106 40.576008 103.31837 38.554688 80.460938 48.554688 C 77.794027 52.632407 80.460938 52.839844 80.460938 52.839844 L 64.746094 52.839844 L 64.746094 57.839844 L 176.17383 57.839844 L 176.17383 52.839844 L 160.46094 52.839844 C 160.46094 52.839844 163.12785 52.632407 160.46094 48.554688 C 137.60352 38.554688 147.26677 40.576008 137.60352 38.554688 L 103.31836 38.554688 z M 231.32422 40.523438 L 212.13281 91.03125 L 206.07031 71.837891 L 186.87891 126.38672 L 204.05078 90.021484 L 219.20312 105.17383 L 231.32422 40.523438 z M 64.746094 67.839844 L 64.746094 231.41211 L 176.17383 231.41211 L 176.17383 67.839844 L 64.746094 67.839844 z M 131.82422 85.980469 L 117.68359 134.95312 L 156.55273 134.95312 L 100.68359 217.08789 L 121.72266 152.65039 L 81.316406 152.65039 L 131.82422 85.980469 z M 208.0918 163.76172 L 201.01953 178.91406 L 182.83789 166.79297 L 204.05078 204.16797 L 205.06055 181.94531 L 230.31445 222.35156 L 208.0918 163.76172 z M 64.746094 241.41211 L 64.746094 249.98242 L 176.17383 249.98242 L 176.17383 241.41211 L 64.746094 241.41211 z "
       transform="translate(0,308.26772)"
       id="rect4196" />
    <path
       style="opacity:0.97000002;fill:#000000;fill-opacity:1;stroke:none;stroke-width:5;stroke-linejoin:round;stroke-miterlimit:4;stroke-dasharray:none;stroke-opacity:1"
       d="m 136.84147,587.69122 a 22.223356,22.223356 0 0 0 -19.84571,12.23047 l -10.92968,-3.64258 -3.03125,-4.04102 -24.242193,-4.04101 17.171872,7.07031 3.03125,7.07227 16.666021,0.92578 a 22.223356,22.223356 0 0 0 -1.04492,6.64843 22.223356,22.223356 0 0 0 1.65429,8.36524 l -16.26562,3.2539 4.04101,6.06055 -9.814451,4.90625 -9.37891,-1.87695 -3.031245,-10.10156 0,13.13281 6.060545,2.02148 5.05078,8.08008 -5.05078,9.0918 3.85938,6.0625 a 47.476397,15.825467 0 0 0 -2.37696,4.88086 47.476397,15.825467 0 0 0 5.89454,7.63281 57.445122,19.148374 0 0 0 -15.863286,13.19922 57.445122,19.148374 0 0 0 12.611326,11.9414 66.636515,22.212172 0 0 0 -21.802732,16.39844 66.636515,22.212172 0 0 0 62.595703,22.16406 l 0,7.18946 a 38.385796,12.121831 0 0 0 -34.343751,12.05273 38.385796,12.121831 0 0 0 0.0078,0.0684 l -10.64453,18.43359 c 9.9866,17.29733 88.042261,17.32174 98.042971,0 l -10.64453,-18.43554 a 38.385796,12.121831 0 0 0 0.01,-0.0664 38.385796,12.121831 0 0 0 -34.3457,-12.04297 l 0,-7.2207 a 66.636515,22.212172 0 0 0 62.5957,-22.14258 66.636515,22.212172 0 0 0 -21.76562,-16.39062 57.445122,19.148374 0 0 0 12.57422,-11.94922 57.445122,19.148374 0 0 0 -15.91797,-13.19922 47.476397,15.825467 0 0 0 5.94922,-7.63281 47.476397,15.825467 0 0 0 -43.43555,-15.75977 l 0,-16.27539 a 22.223356,22.223356 0 0 0 5.57422,-1.84375 l 5.06641,11.82422 3.02929,-5.05078 11.11328,10.10156 0,-7.07226 18.18165,2.02148 -4.04102,-4.04102 14.14258,-15.15234 -23.23242,12.12109 3.02929,2.02149 -11.11132,-1.01172 1.00976,5.05078 -10.10156,-10.10156 -2.01953,4.04101 -2.5586,-6.14257 a 22.223356,22.223356 0 0 0 10.09961,-18.60743 22.223356,22.223356 0 0 0 -0.3789,-3.99218 l 1.92968,-2.57227 4.03907,5.05078 12.12304,-19.19336 -12.12304,14.14258 -1.00977,-5.05078 -5.82031,4.36523 a 22.223356,22.223356 0 0 0 -20.98242,-14.97265 z m -18.84571,33.93359 a 22.223356,22.223356 0 0 0 14.80469,10.12695 l 0,16.28125 a 47.476397,15.825467 0 0 0 -37.845701,8.32618 l 0,-4.52344 7.070311,-9.08985 -7.070311,-5.05078 16.162111,-6.06054 -4.04102,-8.08203 10.91992,-1.92774 z m 22.88672,30.79297 a 34.37946,11.459819 0 0 1 30.33789,11.37305 34.37946,11.459819 0 0 1 -3.15039,4.76367 57.445122,19.148374 0 0 0 -27.1875,-3.0332 l 0,-13.10352 z m -8.08203,0.006 0,13.11914 a 57.445122,19.148374 0 0 0 -27.16406,3.02344 34.37946,11.459819 0 0 1 -3.17383,-4.77539 34.37946,11.459819 0 0 1 30.33789,-11.36719 z m 8.08203,18.40039 a 41.598192,13.866064 0 0 1 17.375,1.92969 34.37946,11.459819 0 0 1 -17.375,2.40429 l 0,-4.33398 z m -8.08203,0.0117 0,4.32617 a 34.37946,11.459819 0 0 1 -17.35351,-2.41406 41.598192,13.866064 0 0 1 17.35351,-1.91211 z m -27.50391,4.75586 a 47.476397,15.825467 0 0 0 27.50391,3.95703 l 0,11.26953 a 66.636515,22.212172 0 0 0 -27.93164,2.65625 41.598192,13.866064 0 0 1 -9.625001,-8.85156 41.598192,13.866064 0 0 1 10.052731,-9.03125 z m 63.07422,0.01 a 41.598192,13.866064 0 0 1 10.06836,9.02149 41.598192,13.866064 0 0 1 -9.64453,8.87304 66.636515,22.212172 0 0 0 -27.91211,-2.69726 l 0,-11.25 a 47.476397,15.825467 0 0 0 27.48828,-3.94727 z m -35.57031,21.3418 0,1.47852 a 41.598192,13.866064 0 0 1 -10.29492,-0.80079 48.254029,16.084676 0 0 1 10.29492,-0.67773 z m 8.08203,0 a 48.254029,16.084676 0 0 1 10.39649,0.67383 41.598192,13.866064 0 0 1 -10.39649,0.79297 l 0,-1.4668 z m 27.125,3.74219 a 48.254029,16.084676 0 0 1 17.08789,12.27734 48.254029,16.084676 0 0 1 -44.21289,16.01953 l 0,-25.27929 a 57.445122,19.148374 0 0 0 27.125,-3.01758 z m -62.33203,0.0195 a 57.445122,19.148374 0 0 0 27.125,3.01758 l 0,25.25781 A 48.254029,16.084676 0 0 1 88.587559,712.9627 48.254029,16.084676 0 0 1 105.67545,700.70489 Z"
       id="path4227"
       inkscape:connector-curvature="0" />
    <path
       style="opacity:0.97000002;fill:#000000;fill-opacity:1;stroke:none;stroke-width:5;stroke-linejoin:round;stroke-miterlimit:4;stroke-dasharray:none;stroke-opacity:1"
       d="m 177.71172,802.36175 -29.14629,19.43086 0,-9.71543 -10.38337,19.61684 a 66.620105,66.620105 0 0 0 -6.68696,0.71727 l -25.95462,-10.61868 15.26764,-8.32642 -38.861723,4.1632 2.77421,-11.10442 -29.146297,31.9243 -6.937425,-6.94123 -4.163214,37.47653 -11.104436,1.3852 22.205075,16.65666 -1.385207,9.71544 22.201284,-10.51999 a 66.620105,66.620105 0 0 0 -1.10058,11.90519 66.620105,66.620105 0 0 0 31.795273,56.7328 l -16.812253,9.89002 2.77801,-6.94123 -20.81987,6.94123 5.55221,-8.32643 -23.594074,-4.16701 15.263854,-2.7742 -43.024944,-22.20509 24.983083,23.59408 -16.652858,1.38521 34.694719,9.71543 -11.10064,8.33023 29.14629,-5.55222 -5.55221,8.32642 32.246883,-14.45549 a 66.620105,66.620105 0 0 0 27.71935,6.12907 66.620105,66.620105 0 0 0 38.08752,-11.99628 l 33.79908,-4.66038 -11.10443,-4.16322 29.1463,-13.87863 -12.48964,0 23.59407,-26.37209 -36.08751,27.76109 9.71543,0 -23.59408,13.87865 5.55221,2.7742 -11.55985,-1.0057 a 66.620105,66.620105 0 0 0 21.55993,-48.96046 66.620105,66.620105 0 0 0 -28.75541,-54.71762 l 18.75533,-3.57118 -4.16322,5.54842 29.1463,6.94123 -12.49342,4.1632 38.86173,12.49345 -20.81608,-12.49345 9.71544,-4.1632 -33.31333,-8.32643 9.71544,-8.33023 -37.47272,-1.3852 2.77801,-5.55222 -17.26766,6.36058 a 66.620105,66.620105 0 0 0 -18.96787,-3.50288 l 1.537,-5.63571 2.77423,2.77801 29.14629,-26.37209 z m -98.543333,19.43086 -1.38521,5.55222 22.20508,-5.55222 -6.93742,5.55222 21.768633,9.9773 a 66.620105,66.620105 0 0 0 -36.281063,40.51638 l -18.80088,10.57692 1.389,-8.33022 -13.878646,-6.93743 6.941222,-1.38899 -2.778007,-30.53531 6.941221,5.55221 20.81607,-24.98308 z m 70.121883,30.46321 -13.87863,38.47462 41.25264,0 -53.21857,53.21856 18.90335,-42.3608 -35.41959,0 42.3608,-49.33238 z"
       id="path4292"
       inkscape:connector-curvature="0" />
    <path
       style="opacity:0.97000002;fill:#000000;fill-opacity:1;stroke:none;stroke-width:5;stroke-linejoin:round;stroke-miterlimit:4;stroke-dasharray:none;stroke-opacity:1"
       d="m 1321.4323,458.52147 c -2.77,0 -5,2.23 -5,5 l 0,184.28516 c 0,2.77 2.23,5 5,5 l 17.8574,0 0,-194.28516 z m 23.5703,0 0,194.28516 140.7149,0 c 2.7699,0 4.9999,-2.23 4.9999,-5 l 0,-59.38281 -22.1425,-7.04492 -10.7149,3.57226 -14.2851,-15 -11.4277,1.42774 -7.1446,-9.28516 -5,4.28516 -10.7129,-5 -8.5722,-0.71485 -0.7149,6.42969 -12.1426,-1.42969 10,-5 -0.7128,-4.28515 8.5703,0 -2.1426,-22.14258 6.4277,-10 -8.5703,-32.14258 6.4277,-12.14258 -7.9589,-21.42969 z m 69.0603,-7.85715 7.3691,20 -6.4277,12.85743 10,33.57226 -7.8574,10 2.1425,20.71289 9.2852,5 3.5723,-5 10,12.14258 10.7129,-2.14258 15.7148,15 7.8574,-3.57031 22.1426,3.08984 0,-116.66211 c 0,-2.77 -2.23,-5 -5,-5 z m -46.4138,15.1677 c 8.679,-3.9e-4 15.7148,8.95403 15.7148,20 0,11.04597 -7.0358,20.00039 -15.7148,20 -8.679,3.9e-4 -15.7148,-8.95403 -15.7148,-20 0,-11.04597 7.0358,-20.00039 15.7148,-20 z m 106.6403,-7.85715 c 8.679,-3.9e-4 15.7149,8.95403 15.7149,20 0,11.04598 -7.0359,20.0004 -15.7149,20 -8.6789,3.9e-4 -15.7148,-8.95403 -15.7148,-20 0,-11.04597 7.0359,-20.00039 15.7148,-20 z m -104.2067,12.14426 c -6.8189,-5e-4 -12.347,7.03432 -12.3477,15.71289 -2e-4,8.67933 5.5282,15.71534 12.3477,15.71484 6.8187,-8.6e-4 12.3459,-7.03647 12.3457,-15.71484 -6e-4,-8.6776 -5.5276,-15.71203 -12.3457,-15.71289 z m 106.6403,-7.85715 c -6.8188,-5e-4 -12.347,7.03432 -12.3476,15.71289 -3e-4,8.67934 5.5282,15.71535 12.3476,15.71484 6.8188,-8.7e-4 12.346,-7.03647 12.3457,-15.71484 -6e-4,-8.6776 -5.5275,-15.71201 -12.3457,-15.71289 z m -109.0739,72.93918 c 8.679,-3.9e-4 15.7148,8.95403 15.7148,20 0,11.04597 -7.0358,20.00039 -15.7148,20 -8.679,3.9e-4 -15.7148,-8.95403 -15.7148,-20 0,-11.04597 7.0358,-20.00039 15.7148,-20 z m 106.6403,-7.85715 c 8.679,-3.9e-4 15.7149,8.95403 15.7149,20 0,11.04598 -7.0359,20.0004 -15.7149,20 -8.6789,3.9e-4 -15.7148,-8.95403 -15.7148,-20 0,-11.04597 7.0359,-20.00039 15.7148,-20 z m -104.2067,12.14426 c -6.8189,-5e-4 -12.347,7.03432 -12.3477,15.71289 -2e-4,8.67933 5.5282,15.71534 12.3477,15.71484 6.8187,-8.6e-4 12.3459,-7.03647 12.3457,-15.71484 -6e-4,-8.6776 -5.5276,-15.71203 -12.3457,-15.71289 z m 106.6403,-7.85715 c -6.8188,-5e-4 -12.347,7.03432 -12.3476,15.71289 -3e-4,8.67934 5.5282,15.71535 12.3476,15.71484 6.8188,-8.7e-4 12.346,-7.03647 12.3457,-15.71484 -6e-4,-8.6776 -5.5275,-15.71201 -12.3457,-15.71289 z m -109.0739,73.94895 c 8.679,-3.9e-4 15.7148,8.95403 15.7148,20 0,11.04597 -7.0358,20.00039 -15.7148,20 -8.679,3.9e-4 -15.7148,-8.95403 -15.7148,-20 0,-11.04597 7.0358,-20.00039 15.7148,-20 z m 98.7832,0 c 8.679,-4e-4 15.7149,8.95402 15.7149,20 0,11.04598 -7.0359,20.0004 -15.7149,20 -8.679,3.9e-4 -15.7148,-8.95403 -15.7148,-20 0,-11.04597 7.0358,-20.00039 15.7148,-20 z m -96.3496,4.28711 c -6.8189,-5e-4 -12.347,7.03432 -12.3477,15.71289 -2e-4,8.67933 5.5282,15.71534 12.3477,15.71484 6.8187,-8.6e-4 12.3459,-7.03647 12.3457,-15.71484 -6e-4,-8.6776 -5.5276,-15.71203 -12.3457,-15.71289 z m 98.7832,0 c -6.8189,-5.1e-4 -12.347,7.03432 -12.3477,15.71289 -2e-4,8.67934 5.5282,15.71535 12.3477,15.71484 6.8187,-8.7e-4 12.3459,-7.03648 12.3457,-15.71484 -6e-4,-8.6776 -5.5276,-15.71202 -12.3457,-15.71289 z"
       id="rect4310"
       inkscape:connector-curvature="0"
       sodipodi:nodetypes="ssssccsccsscccccccccccccccccccccccccccccccccssccscsccscsccccccccccccscsccscsccccccccccccscsccscsccccccccccc" />
    <path
       style="opacity:0.97000002;fill:#000000;fill-opacity:1;stroke:none;stroke-width:5;stroke-linejoin:round;stroke-miterlimit:4;stroke-dasharray:none;stroke-opacity:1"
       d="m 846.00024,23.572421 c -24.88351,0 -53.70312,51.85157 -53.70312,51.85157 l 0,122.224599 107.4082,0 0,-79.78906 -35.26758,0 21.25782,-32.208979 -21.25782,0 21.03907,-31.875 c -10.63649,-14.21959 -25.65998,-30.20313 -39.47657,-30.20313 z m 39.47657,30.20313 c 8.51969,11.38972 14.22851,21.64844 14.22851,21.64844 l 0,42.435539 33.30664,0 -21.25781,-32.208979 21.25781,0 -34.28711,-51.94922 -13.24804,20.07422 z m -93.17969,154.982419 0,14.8164 107.4082,0 0,-14.8164 -107.4082,0 z"
       id="rect4417"
       inkscape:connector-curvature="0" />
    <path
       style="opacity:0.97000002;fill:#000000;fill-opacity:1;stroke:none;stroke-width:5;stroke-linejoin:round;stroke-miterlimit:4;stroke-dasharray:none;stroke-opacity:1"
       d="m 625.88976,53.118402 c -29.16086,6.06309 -45.89865,21.65737 -54.91797,37.57422 -6.37782,11.255248 -28.78674,2.06825 -35.78711,-22.13477 -18.11205,10.14216 -23.92781,43.542578 -7.27344,60.287108 -12.64005,-2.44836 -25.40314,3.05848 -33.27539,12.46875 22.43232,10.42042 38.40146,29.21017 29.26367,53.24609 -15.15229,39.85643 17.79385,78.96249 83.52149,78.42774 37.14633,-0.30222 80.9945,-46.42127 62.16406,-76.23438 -13.29953,-21.05636 -4.1283,-52.06328 22.85742,-93.01367 -18.44211,-4.808108 -32.23409,-1.92346 -49.75586,3.46094 -22.7963,7.00525 -27.13819,-32.898488 -16.79687,-54.082028 z m -25.40821,45.86914 c 18.92619,0 40.84571,39.437498 40.84571,39.437498 l 0,92.96289 -81.69336,0 0,-92.96289 c 0,0 21.92147,-39.437498 40.84765,-39.437498 z m -40.84765,140.849608 81.69336,0 0,11.26953 -81.69336,0 0,-11.26953 z"
       id="rect4417-3"
       inkscape:connector-curvature="0" />
    <path
       style="opacity:0.97000002;fill:#000000;fill-opacity:1;stroke:none;stroke-width:5;stroke-linejoin:round;stroke-miterlimit:4;stroke-dasharray:none;stroke-opacity:1"
       d="m 1562.1229,499.41689 -14.7363,14.48633 -26.7149,-7.93164 -5.5781,32.09375 -28.8555,-9.97266 -0.6719,40.08008 -44.1738,-7.19336 26.7403,24.2461 -32.5274,33.41601 33.5684,15.82227 -19.0352,30.14844 22.4297,-5.5625 4.5996,30.625 23.5684,7.74609 12.0664,27.84375 29.0586,-13.19531 4.9336,17.48239 29.7265,-24.4531 30.5332,19.98243 1.0547,-28.91211 33.3789,4.70703 -9.6679,-27.83985 35.705,-2.96484 -19.2871,-22.76953 25.0742,-18.16406 -15.7714,-24.50586 16.2285,-33.51563 -41.2403,-11.16406 18.0313,-18.57617 -42.3594,-8.20313 -4.6308,-27.99414 -28.045,23.96094 z"
       id="rect4417-3-7"
       inkscape:connector-curvature="0"
       sodipodi:nodetypes="ccccccccccccccccccccccccccccccccc" />
    <path
       d="m 530.12084,717.5245 -12.3965,35.48242 -31.0918,-25.53515 -2.5683,46.36328 -37.5781,-7.91797 10.3007,37.68554 -31.2226,9.33594 22.8594,35.91211 -33.7266,24.24024 44.8848,4.54882 -11.6953,44.88672 44.4648,-13.8164 -3.9121,47.05271 39.4668,-20.83396 18.7246,22.98826 15.8164,-34.291 29.5898,25.02344 4.0704,-45.84961 36.0761,7.4043 -5.3242,-31.96289 41.6445,-9.60157 -36.3398,-40.68945 21.3867,-24.6543 -23.3516,-16.4082 5.5606,-27.56836 -38.3281,-3.50391 -4.1426,-30.4121 -30.0098,20.54296 -33.1582,-28.42187 z m 69.7871,68.50977 c 5.0881,-0.0346 9.4437,1.36245 12.0137,5.14648 10.2794,15.1352 -25.4922,42.74609 -25.4922,42.74609 l -23.6406,-34.81054 c 0,0 21.8546,-12.9783 37.1191,-13.08203 z m -40.8398,13.95312 25.1816,37.07617 -2.25,1.52735 0.6719,0.99023 -69.6797,47.32227 -2.2109,-3.25586 -4.8086,3.26367 2.4277,3.57422 -4.7109,3.19922 -26.9551,-39.6875 4.7109,-3.19922 2.4278,3.57422 4.8086,-3.26563 -2.211,-3.25586 69.6778,-47.32422 0.6718,0.98828 2.2481,-1.52734 z"
       id="path3412"
       inkscape:connector-curvature="0" />
    <rect
       style="clip-rule:evenodd;fill-rule:evenodd;stroke-linejoin:round;stroke-miterlimit:1.41420996"
       id="Artboard1"
       x="1369.9398"
       y="-576.48694"
       width="0"
       height="43.813847"
       transform="matrix(0.56183842,0.82724699,-0.82724699,0.56183842,0,0)" />
  </g>
</svg>
